<?xml version="1.0" encoding="UTF-8" standalone="no"?>
<svg
   id="svg3086"
   version="1.1"
   inkscape:version="1.4.1-rc (06eac75fbf, 2025-03-29)"
   width="50"
   height="250"
   sodipodi:docname="icons-white.svg"
   xmlns:inkscape="http://www.inkscape.org/namespaces/inkscape"
   xmlns:sodipodi="http://sodipodi.sourceforge.net/DTD/sodipodi-0.dtd"
   xmlns="http://www.w3.org/2000/svg"
   xmlns:svg="http://www.w3.org/2000/svg"
   xmlns:rdf="http://www.w3.org/1999/02/22-rdf-syntax-ns#"
   xmlns:cc="http://creativecommons.org/ns#"
   xmlns:dc="http://purl.org/dc/elements/1.1/">
  <metadata
     id="metadata3092">
    <rdf:RDF>
      <cc:Work
         rdf:about="">
        <dc:format>image/svg+xml</dc:format>
        <dc:type
           rdf:resource="http://purl.org/dc/dcmitype/StillImage" />
      </cc:Work>
    </rdf:RDF>
  </metadata>
  <defs
     id="defs3090" />
  <sodipodi:namedview
     pagecolor="#ffffff"
     bordercolor="#666666"
     borderopacity="1"
     objecttolerance="10"
     gridtolerance="10"
     guidetolerance="10"
     inkscape:pageopacity="0"
     inkscape:pageshadow="2"
     inkscape:window-width="1854"
     inkscape:window-height="1131"
     id="namedview3088"
     showgrid="false"
     inkscape:zoom="19.397702"
     inkscape:cx="26.833076"
     inkscape:cy="234.71853"
     inkscape:window-x="0"
     inkscape:window-y="0"
     inkscape:window-maximized="1"
     inkscape:current-layer="layer3"
     inkscape:document-rotation="0"
     inkscape:showpageshadow="2"
     inkscape:pagecheckerboard="0"
     inkscape:deskcolor="#d1d1d1"
     showguides="true" />
  <g
     inkscape:groupmode="layer"
     id="layer2"
     inkscape:label="ug"
     style="display:inline">
    <path
       id="path959"
       d="m 34.922602,130.3715 c 0,1.85542 -1.364279,3.2197 -3.219698,3.2197 -1.800848,0 -3.219698,-1.36428 -3.219698,-3.2197 V 119.62098 H 22.97152 v 10.75052 c 0,4.96597 4.147407,7.96739 8.731384,7.96739 4.693119,0 8.785955,-3.05599 8.785955,-7.96739 v -10.75052 h -5.511686 v 10.75052 z"
       style="fill:#ffffff;fill-opacity:1;stroke-width:0.545712" />
    <g
       id="g987"
       transform="matrix(0.54571151,0,0,0.54571151,-28.980216,83.658592)"
       style="fill:#ffffff;fill-opacity:1">
      <rect
         id="rect985"
         height="5.0999999"
         width="14.8"
         y="66.400002"
         x="66.099998"
         style="fill:#ffffff;fill-opacity:1" />
    </g>
    <g
       id="g991"
       transform="matrix(0.54571151,0,0,0.54571151,-28.980216,83.658592)"
       style="fill:#ffffff;fill-opacity:1">
      <rect
         id="rect989"
         height="14.8"
         width="5.0999999"
         y="36.799999"
         x="95.699997"
         style="fill:#ffffff;fill-opacity:1" />
    </g>
    <g
       id="g995"
       transform="matrix(0.54571151,0,0,0.54571151,-28.980216,83.658592)"
       style="fill:#ffffff;fill-opacity:1">
      <rect
         id="rect993"
         height="14.8"
         width="5.0999999"
         transform="rotate(-45.001,79.98,50.693)"
         y="43.299999"
         x="77.400002"
         style="fill:#ffffff;fill-opacity:1" />
    </g>
  </g>
  <g
     inkscape:groupmode="layer"
     id="layer3"
     inkscape:label="library">
    <rect
       style="display:inline;fill:none;stroke:#ffffff;stroke-width:2.14807;stroke-dasharray:none;stroke-opacity:1"
       id="rect1"
       width="7.7432265"
       height="27.817867"
       x="7.7611666"
       y="214.11818" />
    <rect
       style="display:inline;fill:none;stroke:#ffffff;stroke-width:2.63079;stroke-dasharray:none;stroke-opacity:1"
       id="rect1-6"
       width="9.357852"
       height="34.526058"
       x="17.109343"
       y="207.12448" />
    <rect
       style="display:inline;fill:none;stroke:#ffffff;stroke-width:2.07345;stroke-dasharray:none;stroke-opacity:1"
       id="rect1-6-5"
       width="5.7204971"
       height="35.083405"
       x="-26.311604"
       y="208.67519"
       transform="rotate(-15)" />
    <path
       style="fill:none;stroke:#ffffff;stroke-width:1px;stroke-linecap:butt;stroke-linejoin:miter;stroke-opacity:1"
       d="m 7.6706219,239.97527 h 8.1248031 v 0.10093 0 0"
       id="path3" />
    <path
       style="fill:none;stroke:#ffffff;stroke-width:1px;stroke-linecap:butt;stroke-linejoin:miter;stroke-opacity:1"
       d="m 7,216 h 8.124803 v 0.10093 0 0"
       id="path3-2" />
    <path
       style="fill:none;stroke:#ffffff;stroke-width:1px;stroke-linecap:butt;stroke-linejoin:miter;stroke-opacity:1"
       d="m 17.107506,234.7614 h 9.588277"
       id="path4" />
    <path
       style="fill:none;stroke:#ffffff;stroke-width:1px;stroke-linecap:butt;stroke-linejoin:miter;stroke-opacity:1"
       d="m 17.036418,236.54053 h 9.588277"
       id="path4-9" />
    <path
       style="fill:none;stroke:#ffffff;stroke-width:1px;stroke-linecap:butt;stroke-linejoin:miter;stroke-opacity:1"
       d="M 17.208435,214.03998 H 26.44346"
       id="path5" />
    <path
       style="fill:none;stroke:#ffffff;stroke-width:1px;stroke-linecap:butt;stroke-linejoin:miter;stroke-opacity:1"
       d="m 16.85022,212.0627 h 9.235025"
       id="path5-7"
       inkscape:transform-center-x="0.51013188"
       inkscape:transform-center-y="2.7207034" />
  </g>
  <g
     transform="matrix(0.24415394,0,0,0.24415394,-2.9867092,148.36908)"
     id="g4"
     style="clip-rule:evenodd;fill:#ffffff;fill-opacity:1;fill-rule:evenodd;stroke-linejoin:round;stroke-miterlimit:2">
    <path
       d="m 142.662,103.442 3.603,-9.111 h 10.403 l -4.938,-13.821 6.175,-15.614 17.685,46.956 h -13.042 l -3.022,-8.41 z"
       style="fill:#ffffff;fill-opacity:1;fill-rule:nonzero"
       id="path2" />
  </g>
  <g
     transform="matrix(0.24415394,0,0,0.24415394,-2.9867092,148.36908)"
     id="g8"
     style="clip-rule:evenodd;fill:#ffffff;fill-opacity:1;fill-rule:evenodd;stroke-linejoin:round;stroke-miterlimit:2">
    <path
       d="m 131.535,109.284 18.932,-46.956 -12.551,10e-4 -12.951,30.344 -9.21,-30.344 h -9.647 l -9.888,30.344 -6.974,-13.828 -6.311,19.443 6.408,10.996 h 12.352 l 8.936,-27.212 8.519,27.212 z"
       style="fill:#ffffff;fill-opacity:1;fill-rule:nonzero"
       id="path6" />
  </g>
  <g
     transform="matrix(0.24415394,0,0,0.24415394,-2.9867092,148.36908)"
     id="g12"
     style="clip-rule:evenodd;fill:#ffffff;fill-opacity:1;fill-rule:evenodd;stroke-linejoin:round;stroke-miterlimit:2">
    <path
       d="m 62.789,93.166 h 7.731 c 2.342,0 4.427,-0.261 6.256,-0.784 l 1.999,-6.159 5.588,-17.216 C 83.938,68.333 83.452,67.694 82.905,67.093 80.036,63.917 75.838,62.33 70.312,62.33 H 50.875 v 46.956 H 62.789 Z M 73.022,73.132 c 1.121,1.128 1.681,2.638 1.681,4.528 0,1.906 -0.493,3.417 -1.478,4.534 -1.081,1.241 -3.07,1.862 -5.968,1.862 H 62.789 V 71.441 h 4.501 c 2.701,0 4.612,0.563 5.732,1.691 z"
       style="fill:#ffffff;fill-opacity:1;fill-rule:nonzero"
       id="path10" />
  </g>
  <g
     inkscape:groupmode="layer"
     id="layer4"
     inkscape:label="profile"
     style="display:inline">
    <ellipse
       id="path3958"
       style="color:#000000;display:inline;overflow:visible;visibility:visible;fill:none;stroke:#ffffff;stroke-width:3;stroke-linecap:butt;stroke-linejoin:miter;stroke-miterlimit:4;stroke-dasharray:none;stroke-dashoffset:0;stroke-opacity:1;marker:none;enable-background:accumulate"
       cx="24.681955"
       cy="15.269231"
       rx="10.766511"
       ry="10.769231" />
    <path
       inkscape:connector-curvature="0"
       id="path3960"
       d="M 15.840162,28.561538 11.256705,36.5 h 26.854753 l -4.583457,-7.938462 z"
       style="color:#000000;display:inline;overflow:visible;visibility:visible;fill:none;stroke:#ffffff;stroke-width:3;stroke-linecap:butt;stroke-linejoin:miter;stroke-miterlimit:4;stroke-dasharray:none;stroke-dashoffset:0;stroke-opacity:1;marker:none;enable-background:accumulate" />
  </g>
  <g
     inkscape:groupmode="layer"
     id="layer5"
     inkscape:label="web"
     style="display:inline">
    <ellipse
       id="path2985"
       style="color:#000000;display:inline;overflow:visible;visibility:visible;fill:none;stroke:#ffffff;stroke-width:3;stroke-linecap:butt;stroke-linejoin:miter;stroke-miterlimit:4;stroke-dasharray:none;stroke-dashoffset:0;stroke-opacity:1;marker:none;enable-background:accumulate"
       cx="24.684082"
       cy="70.542694"
       rx="16"
       ry="15.957298" />
    <ellipse
       id="path2985-0"
       style="color:#000000;display:inline;overflow:visible;visibility:visible;fill:none;stroke:#ffffff;stroke-width:3;stroke-linecap:butt;stroke-linejoin:miter;stroke-miterlimit:4;stroke-dasharray:none;stroke-dashoffset:0;stroke-opacity:1;marker:none;enable-background:accumulate"
       cx="24.684082"
       cy="70.542694"
       rx="9.3262033"
       ry="15.957298" />
    <path
       inkscape:connector-curvature="0"
       id="path3798"
       d="m 24.812424,54.50004 -0.256685,31.9146"
       style="fill:none;stroke:#ffffff;stroke-width:3;stroke-linecap:butt;stroke-linejoin:miter;stroke-miterlimit:4;stroke-dasharray:none;stroke-opacity:1" />
    <path
       inkscape:connector-curvature="0"
       id="path3800"
       d="M 8.684082,70.54274 H 40.427398"
       style="fill:none;stroke:#ffffff;stroke-width:3;stroke-linecap:butt;stroke-linejoin:miter;stroke-miterlimit:4;stroke-dasharray:none;stroke-opacity:1" />
    <path
       inkscape:connector-curvature="0"
       id="path3802"
       d="M 10.480874,63.00004 H 38.972853"
       style="fill:none;stroke:#ffffff;stroke-width:3;stroke-linecap:butt;stroke-linejoin:miter;stroke-miterlimit:4;stroke-dasharray:none;stroke-opacity:1" />
    <path
       inkscape:connector-curvature="0"
       id="path3804"
       d="M 11.250928,78.00004 H 38.202799"
       style="fill:none;stroke:#ffffff;stroke-width:3;stroke-linecap:butt;stroke-linejoin:miter;stroke-miterlimit:4;stroke-dasharray:none;stroke-opacity:1" />
  </g>
</svg>
